<svg width="40" height="31" viewBox="0 0 40 31" fill="none" xmlns="http://www.w3.org/2000/svg">
<path d="M33.8615 3.4863C31.3115 2.3363 28.5782 1.4863 25.7198 1.00296C25.6944 0.998077 25.668 1.00123 25.6444 1.01198C25.6208 1.02273 25.6012 1.04054 25.5882 1.06296C25.2382 1.67796 24.8482 2.47963 24.5748 3.11296C21.5433 2.66003 18.4613 2.66003 15.4298 3.11296C15.1254 2.41106 14.7821 1.72667 14.4015 1.06296C14.3886 1.04027 14.3691 1.02205 14.3456 1.01073C14.322 0.999415 14.2956 0.995542 14.2698 0.99963C11.4132 1.48296 8.67983 2.33296 6.12816 3.48463C6.10621 3.49384 6.0876 3.50954 6.07483 3.52963C0.888158 11.1546 -0.533509 18.5913 0.164825 25.9346C0.166768 25.9526 0.17235 25.97 0.181233 25.9858C0.190115 26.0015 0.202111 26.0153 0.216491 26.0263C3.24381 28.2303 6.62039 29.9093 10.2048 30.993C10.2298 31.0007 10.2565 31.0006 10.2815 30.9929C10.3065 30.9852 10.3286 30.9701 10.3448 30.9496C11.1148 29.9163 11.8015 28.8246 12.3882 27.678C12.4232 27.6113 12.3898 27.5313 12.3198 27.5046C11.2432 27.0992 10.2 26.6099 9.19983 26.0413C9.18186 26.031 9.16671 26.0165 9.15575 25.9989C9.1448 25.9814 9.13837 25.9614 9.13705 25.9407C9.13573 25.9201 9.13955 25.8994 9.14818 25.8806C9.15681 25.8618 9.16998 25.8454 9.18649 25.833C9.39649 25.678 9.60649 25.5163 9.80649 25.3546C9.8245 25.3401 9.84618 25.3308 9.86913 25.3279C9.89209 25.325 9.9154 25.3284 9.93649 25.338C16.4815 28.278 23.5698 28.278 30.0382 25.338C30.0593 25.3279 30.0829 25.3239 30.1061 25.3266C30.1294 25.3292 30.1515 25.3384 30.1698 25.353C30.3698 25.5163 30.5782 25.678 30.7898 25.833C30.8065 25.8452 30.8199 25.8613 30.8288 25.88C30.8377 25.8986 30.8418 25.9192 30.8409 25.9398C30.8399 25.9605 30.8338 25.9805 30.8231 25.9982C30.8125 26.016 30.7976 26.0307 30.7798 26.0413C29.7832 26.6146 28.7465 27.0996 27.6582 27.503C27.6414 27.509 27.6262 27.5186 27.6135 27.531C27.6008 27.5434 27.5908 27.5584 27.5844 27.575C27.5779 27.5916 27.5751 27.6093 27.576 27.6271C27.5769 27.6448 27.5817 27.6622 27.5898 27.678C28.1898 28.823 28.8765 29.913 29.6315 30.948C29.6472 30.9692 29.6691 30.9851 29.6941 30.9934C29.7192 31.0018 29.7462 31.0022 29.7715 30.9946C33.3621 29.914 36.7442 28.2343 39.7748 26.0263C39.7896 26.016 39.802 26.0026 39.8112 25.9871C39.8204 25.9715 39.8262 25.9542 39.8282 25.9363C40.6615 17.4463 38.4315 10.0696 33.9132 3.53296C33.9021 3.51172 33.8838 3.49516 33.8615 3.4863ZM13.3665 21.463C11.3965 21.463 9.77149 19.6813 9.77149 17.4963C9.77149 15.3096 11.3648 13.5296 13.3665 13.5296C15.3832 13.5296 16.9932 15.3246 16.9615 17.4963C16.9615 19.683 15.3682 21.463 13.3665 21.463ZM26.6582 21.463C24.6865 21.463 23.0632 19.6813 23.0632 17.4963C23.0632 15.3096 24.6548 13.5296 26.6582 13.5296C28.6748 13.5296 30.2848 15.3246 30.2532 17.4963C30.2532 19.683 28.6765 21.463 26.6582 21.463Z" fill="black"/>
</svg>
