<svg width="86" height="317" viewBox="0 0 86 317" fill="none" xmlns="http://www.w3.org/2000/svg">
<path opacity="0.05" d="M21.2 244.32L21.2 268.8L86 268.8L86 292.2L21.2 292.2L21.2 316.8L0.799995 316.8L0.799992 244.32L21.2 244.32ZM87.2 216.355C87.2 221.875 86.36 226.795 84.68 231.115C82.92 235.435 80.56 239.075 77.6 242.035C74.64 244.915 71.24 247.115 67.4 248.635C63.56 250.155 59.52 250.915 55.28 250.915C49.2 250.915 43.64 249.595 38.6 246.955C33.48 244.315 29.4 240.435 26.36 235.315C23.24 230.195 21.68 223.875 21.68 216.355C21.68 208.835 23.2 202.515 26.24 197.395C29.28 192.275 33.28 188.395 38.24 185.755C43.2 183.115 48.6 181.795 54.44 181.795C55.64 181.795 56.88 181.875 58.16 182.035C59.36 182.115 60.44 182.235 61.4 182.395L61.4 226.675C63.64 226.515 65.48 225.915 66.92 224.875C68.28 223.755 69.28 222.395 69.92 220.795C70.56 219.115 70.88 217.395 70.88 215.635C70.88 213.155 70.32 210.835 69.2 208.675C68.08 206.435 66.52 204.955 64.52 204.235L70.04 184.915C73.4 186.595 76.36 188.955 78.92 191.995C81.48 194.955 83.52 198.475 85.04 202.555C86.48 206.635 87.2 211.235 87.2 216.355ZM47.72 227.155L47.72 206.275C45.64 206.515 43.88 207.115 42.44 208.075C41 208.955 39.88 210.155 39.08 211.675C38.28 213.115 37.88 214.795 37.88 216.715C37.88 218.635 38.28 220.355 39.08 221.875C39.88 223.315 41 224.515 42.44 225.475C43.88 226.355 45.64 226.915 47.72 227.155ZM66.92 177.79C62.68 177.79 58.96 176.63 55.76 174.31C52.48 171.99 49.92 168.79 48.08 164.71C46.24 160.55 45.32 155.83 45.32 150.55C45.32 148.07 45.52 145.75 45.92 143.59C46.32 141.35 46.92 139.43 47.72 137.83L45.8 137.83C42.84 137.83 40.64 138.71 39.2 140.47C37.76 142.15 37.04 144.91 37.04 148.75C37.04 152.27 37.64 155.59 38.84 158.71C39.96 161.75 41.64 164.95 43.88 168.31L29.72 174.91C27 170.67 25 166.23 23.72 161.59C22.36 156.87 21.68 151.83 21.68 146.47C21.68 136.47 23.96 128.75 28.52 123.31C33 117.79 39.68 115.03 48.56 115.03L60.8 115.03C62.96 115.03 64.48 114.71 65.36 114.07C66.16 113.43 66.64 112.31 66.8 110.71L86 110.71C86.4 112.55 86.68 114.31 86.84 115.99C87.08 117.59 87.2 119.03 87.2 120.31C87.2 124.39 86.48 127.51 85.04 129.67C83.52 131.75 81.32 133.11 78.44 133.75L76.16 134.23C79.76 137.03 82.52 140.27 84.44 143.95C86.28 147.63 87.2 151.55 87.2 155.71C87.2 159.87 86.32 163.63 84.56 166.99C82.8 170.35 80.4 172.99 77.36 174.91C74.24 176.83 70.76 177.79 66.92 177.79ZM68.48 140.83C67.84 139.95 67.16 139.23 66.44 138.67C65.64 138.11 64.84 137.83 64.04 137.83L59.36 137.83C58.88 139.11 58.48 140.59 58.16 142.27C57.84 143.87 57.68 145.31 57.68 146.59C57.68 149.31 58.36 151.63 59.72 153.55C61.08 155.39 62.8 156.31 64.88 156.31C66 156.31 67.04 155.99 68 155.35C68.88 154.71 69.6 153.83 70.16 152.71C70.64 151.59 70.88 150.31 70.88 148.87C70.88 147.51 70.68 146.11 70.28 144.67C69.8 143.15 69.2 141.87 68.48 140.83ZM86 0.714365L86 23.5144L50.48 23.5144C47.36 23.5144 45.12 24.1544 43.76 25.4344C42.32 26.6344 41.6 28.1144 41.6 29.8744C41.6 31.6344 42.44 33.5544 44.12 35.6344C45.8 37.7144 47.96 39.2344 50.6 40.1944L86 40.1944L86 62.9944L50.48 62.9944C47.36 62.9944 45.12 63.6344 43.76 64.9144C42.32 66.1144 41.6 67.5944 41.6 69.3544C41.6 71.1144 42.44 73.0344 44.12 75.1144C45.8 77.1944 47.96 78.7144 50.6 79.6744L86 79.6744L86 102.474L22.88 102.474L22.88 81.9544L32.24 81.9544C28.8 79.7144 26.2 76.6344 24.44 72.7144C22.6 68.7944 21.68 64.1544 21.68 58.7944C21.68 53.5944 22.8 49.6744 25.04 47.0344C27.28 44.3944 29.8 42.6344 32.6 41.7544C29.16 39.5144 26.48 36.4344 24.56 32.5144C22.64 28.5944 21.68 24.1944 21.68 19.3144C21.68 15.1544 22.44 11.8344 23.96 9.35436C25.48 6.87437 27.44 5.03437 29.84 3.83436C32.24 2.55437 34.76 1.71437 37.4 1.31437C39.96 0.914367 42.32 0.714367 44.48 0.714367L86 0.714365Z" fill="black"/>
</svg>
