<svg width="39" height="32" viewBox="0 0 39 32" fill="none" xmlns="http://www.w3.org/2000/svg">
<path d="M38.4049 4.2283C37.0132 4.84497 35.5182 5.26163 33.9465 5.44997C35.5682 4.47962 36.7814 2.95241 37.3599 1.1533C35.8363 2.05828 34.1688 2.69529 32.4299 3.03663C31.2605 1.78807 29.7116 0.960509 28.0237 0.682422C26.3358 0.404335 24.6034 0.691285 23.0953 1.49872C21.5872 2.30616 20.3878 3.5889 19.6834 5.14781C18.9791 6.70671 18.8091 8.45455 19.1999 10.12C16.1127 9.96496 13.0926 9.16255 10.3356 7.76481C7.57856 6.36707 5.14626 4.40523 3.19652 2.00663C2.52986 3.15663 2.14652 4.48997 2.14652 5.90997C2.14578 7.18829 2.46058 8.44704 3.06299 9.57452C3.6654 10.702 4.53679 11.6634 5.59986 12.3733C4.36698 12.3341 3.16131 12.0009 2.08319 11.4016V11.5016C2.08307 13.2945 2.70324 15.0323 3.83849 16.42C4.97375 17.8077 6.55414 18.7598 8.31152 19.115C7.16783 19.4245 5.96875 19.4701 4.80486 19.2483C5.30069 20.791 6.26652 22.14 7.56714 23.1065C8.86775 24.073 10.4381 24.6086 12.0582 24.6383C9.30791 26.7973 5.91134 27.9684 2.41486 27.9633C1.79549 27.9635 1.17665 27.9273 0.561523 27.855C4.11065 30.1369 8.24209 31.348 12.4615 31.3433C26.7449 31.3433 34.5532 19.5133 34.5532 9.2533C34.5532 8.91997 34.5449 8.5833 34.5299 8.24996C36.0487 7.15159 37.3597 5.79146 38.4015 4.2333L38.4049 4.2283V4.2283Z" fill="black"/>
</svg>
