<svg width="51" height="51" viewBox="0 0 51 51" fill="none" xmlns="http://www.w3.org/2000/svg">
<path d="M25.5 5.5C20.1957 5.5 15.1086 7.60714 11.3579 11.3579C7.60714 15.1086 5.5 20.1957 5.5 25.5C5.5 30.8043 7.60714 35.8914 11.3579 39.6421C15.1086 43.3929 20.1957 45.5 25.5 45.5C30.8043 45.5 35.8914 43.3929 39.6421 39.6421C43.3929 35.8914 45.5 30.8043 45.5 25.5C45.5 20.1957 43.3929 15.1086 39.6421 11.3579C35.8914 7.60714 30.8043 5.5 25.5 5.5ZM0.5 25.5C0.5 11.6925 11.6925 0.5 25.5 0.5C39.3075 0.5 50.5 11.6925 50.5 25.5C50.5 39.3075 39.3075 50.5 25.5 50.5C11.6925 50.5 0.5 39.3075 0.5 25.5ZM23 19.035L17.2675 24.7675C16.796 25.2229 16.1645 25.4749 15.509 25.4692C14.8535 25.4635 14.2265 25.2006 13.763 24.737C13.2994 24.2735 13.0365 23.6465 13.0308 22.991C13.0251 22.3355 13.2771 21.704 13.7325 21.2325L23.7325 11.2325C24.2013 10.7638 24.8371 10.5005 25.5 10.5005C26.1629 10.5005 26.7987 10.7638 27.2675 11.2325L37.2675 21.2325C37.7229 21.704 37.9749 22.3355 37.9692 22.991C37.9635 23.6465 37.7006 24.2735 37.237 24.737C36.7735 25.2006 36.1465 25.4635 35.491 25.4692C34.8355 25.4749 34.204 25.2229 33.7325 24.7675L28 19.035V38C28 38.663 27.7366 39.2989 27.2678 39.7678C26.7989 40.2366 26.163 40.5 25.5 40.5C24.837 40.5 24.2011 40.2366 23.7322 39.7678C23.2634 39.2989 23 38.663 23 38V19.035Z" fill="#BD8334"/>
</svg>
